<svg width="1440" height="1024" viewBox="0 0 1440 1024" fill="none" xmlns="http://www.w3.org/2000/svg">
<rect width="1440" height="1024" fill="black"/>
<path d="M177.347 957.024V917.592C177.347 916.713 176.664 916 175.822 916C174.98 916 174.297 916.713 174.297 917.592V957.024C167.074 957.822 161.427 964.22 161.427 971.97C161.427 980.257 167.885 987 175.822 987C183.76 987 190.217 980.257 190.217 971.97C190.217 964.22 184.57 957.822 177.347 957.024ZM175.822 983.816C169.566 983.816 164.476 978.502 164.476 971.97C164.476 965.438 169.566 960.124 175.822 960.124C182.078 960.124 187.168 965.438 187.168 971.97C187.168 978.502 182.078 983.816 175.822 983.816Z" fill="white"/>
<path d="M209.703 957.024V917.592C209.703 916.713 209.02 916 208.178 916C207.336 916 206.653 916.713 206.653 917.592V957.024C199.43 957.822 193.783 964.22 193.783 971.97C193.783 980.257 200.241 987 208.178 987C216.115 987 222.573 980.257 222.573 971.97C222.573 964.22 216.926 957.822 209.703 957.024ZM208.178 983.816C201.922 983.816 196.832 978.502 196.832 971.97C196.832 965.438 201.922 960.124 208.178 960.124C214.434 960.124 219.524 965.438 219.524 971.97C219.524 978.502 214.434 983.816 208.178 983.816Z" fill="white"/>
<path d="M175.822 961.557C170.323 961.557 165.849 966.228 165.849 971.97C165.849 977.711 170.323 982.383 175.822 982.383C181.321 982.383 185.795 977.711 185.795 971.97C185.795 966.228 181.321 961.557 175.822 961.557ZM175.822 979.199C172.005 979.199 168.899 975.956 168.899 971.97C168.899 967.984 172.005 964.741 175.822 964.741C179.64 964.741 182.745 967.984 182.745 971.97C182.745 975.956 179.64 979.199 175.822 979.199Z" fill="white"/>
<path d="M208.178 961.557C202.679 961.557 198.205 966.228 198.205 971.97C198.205 977.711 202.679 982.383 208.178 982.383C213.677 982.383 218.151 977.711 218.151 971.97C218.151 966.228 213.677 961.557 208.178 961.557ZM208.178 979.199C204.36 979.199 201.255 975.956 201.255 971.97C201.255 967.984 204.36 964.741 208.178 964.741C211.996 964.741 215.101 967.984 215.101 971.97C215.101 975.956 211.996 979.199 208.178 979.199Z" fill="white"/>
<g clip-path="url(#clip0)">
<path d="M961.629 366.73L955.255 370.411L953.23 366.904C952.8 366.159 951.748 365.961 950.881 366.462L946.278 369.119C944.103 366.883 940.246 366.487 936.999 368.362C933.753 370.236 932.168 373.774 933.016 376.776L928.414 379.433C927.546 379.934 927.191 380.944 927.621 381.689L929.646 385.196L923.272 388.876C920.679 390.373 919.615 393.402 920.9 395.627L947.466 441.641C948.751 443.867 951.906 444.46 954.499 442.963L992.856 420.817C995.449 419.32 996.513 416.291 995.228 414.065L968.662 368.052C967.377 365.826 964.222 365.233 961.629 366.73ZM931.542 381.224L935.99 378.656C936.858 378.155 937.212 377.145 936.782 376.4L936.719 376.291C935.724 374.566 936.548 372.219 938.557 371.059C940.566 369.899 943.011 370.359 944.006 372.084L944.069 372.193C944.5 372.938 945.552 373.135 946.419 372.634L950.867 370.067L955.461 378.024L936.137 389.182L931.542 381.224ZM958.59 379.815C959.431 379.329 959.788 378.366 959.417 377.629L962.092 376.085L984.987 415.739L954.036 433.608L931.141 393.954L933.816 392.41C934.269 393.099 935.282 393.272 936.123 392.786L958.59 379.815ZM992.085 415.88C992.512 416.618 992.159 417.623 991.299 418.119L952.941 440.265C952.081 440.762 951.035 440.565 950.608 439.827L924.043 393.813C923.616 393.075 923.969 392.07 924.829 391.574L931.204 387.893L932.255 389.714L928.013 392.163C927.145 392.664 926.79 393.674 927.22 394.419L951.672 436.771C952.103 437.516 953.155 437.714 954.022 437.213L988.115 417.53C988.983 417.029 989.338 416.019 988.908 415.274L964.456 372.922C964.025 372.177 962.973 371.979 962.106 372.48L957.864 374.929L956.812 373.108L963.187 369.428C964.047 368.931 965.093 369.128 965.52 369.866L992.085 415.88Z" fill="white"/>
<path d="M939.457 402.371C939.887 403.116 940.939 403.314 941.807 402.813L953.59 396.01C954.458 395.509 954.813 394.499 954.383 393.754C953.953 393.009 952.901 392.811 952.033 393.312L940.25 400.115C939.382 400.616 939.027 401.626 939.457 402.371Z" fill="white"/>
<path d="M957.601 402.956L945.818 409.759C944.95 410.26 944.595 411.27 945.025 412.015C945.455 412.76 946.507 412.957 947.375 412.456L959.158 405.653C960.026 405.152 960.381 404.142 959.951 403.398C959.521 402.653 958.469 402.455 957.601 402.956Z" fill="white"/>
<path d="M963.169 412.6L951.385 419.403C950.518 419.904 950.163 420.914 950.593 421.659C951.023 422.404 952.075 422.601 952.943 422.1L964.726 415.297C965.594 414.796 965.949 413.786 965.519 413.041C965.088 412.296 964.036 412.099 963.169 412.6Z" fill="white"/>
<path d="M947.557 374.855L937.344 380.751C936.477 381.252 936.122 382.262 936.552 383.007C936.982 383.752 938.034 383.95 938.902 383.449L949.114 377.553C949.982 377.052 950.337 376.042 949.906 375.297C949.476 374.552 948.424 374.354 947.557 374.855Z" fill="white"/>
<path d="M959.535 392.051C959.994 392.137 960.472 392.037 960.874 391.804C961.276 391.572 961.602 391.208 961.757 390.768L963.998 384.387C964.307 383.507 963.814 382.652 962.897 382.48C961.979 382.307 960.984 382.882 960.675 383.763L958.994 388.548L957.324 388.234C956.406 388.062 955.411 388.636 955.102 389.517C954.792 390.398 955.285 391.252 956.203 391.425L959.535 392.051Z" fill="white"/>
<path d="M965.103 401.695C965.562 401.781 966.04 401.68 966.442 401.448C966.844 401.216 967.17 400.852 967.324 400.412L969.566 394.031C969.875 393.15 969.382 392.296 968.465 392.124C967.547 391.951 966.552 392.526 966.243 393.407L964.562 398.192L962.892 397.878C961.974 397.706 960.979 398.28 960.67 399.161C960.36 400.042 960.853 400.896 961.771 401.069L965.103 401.695Z" fill="white"/>
</g>
<g clip-path="url(#clip1)">
<path d="M1203.62 184.667C1201.75 183.987 1199.82 183.9 1198.02 184.305C1198.1 180.293 1195.58 176.452 1191.52 174.971C1186.44 173.122 1180.84 175.643 1179.04 180.591L1175.74 189.659L1132.14 173.791L1135.44 164.724C1137.24 159.776 1134.57 154.246 1129.49 152.397C1125.43 150.916 1121.03 152.239 1118.51 155.365C1117.4 153.901 1115.86 152.722 1113.99 152.042C1108.91 150.192 1103.31 152.714 1101.51 157.662L1092.8 181.584C1091 186.532 1093.67 192.062 1098.75 193.911C1100.62 194.591 1102.55 194.678 1104.35 194.273C1104.27 198.285 1106.79 202.126 1110.85 203.607C1115.94 205.456 1121.53 202.935 1123.33 197.987L1126.63 188.919L1170.23 204.787L1166.93 213.854C1165.13 218.802 1167.8 224.332 1172.88 226.181C1176.95 227.662 1181.34 226.339 1183.86 223.213C1184.97 224.677 1186.52 225.856 1188.38 226.536C1193.46 228.385 1199.06 225.864 1200.86 220.916L1209.57 196.994C1211.37 192.046 1208.7 186.516 1203.62 184.667ZM1100.39 189.41C1097.85 188.489 1096.52 185.732 1097.42 183.266L1106.13 159.344C1107.03 156.877 1109.82 155.621 1112.35 156.542C1114.88 157.464 1116.21 160.221 1115.31 162.687L1106.61 186.609C1105.71 189.076 1102.92 190.332 1100.39 189.41ZM1118.71 196.305C1117.82 198.771 1115.03 200.028 1112.49 199.106C1109.96 198.184 1108.63 195.428 1109.53 192.962L1111.23 188.291L1119.93 164.369L1121.63 159.699C1122.53 157.232 1125.32 155.976 1127.86 156.897C1130.39 157.819 1131.72 160.576 1130.82 163.042L1118.71 196.305ZM1128.27 184.419L1130.5 178.292L1174.1 194.159L1171.87 200.286L1128.27 184.419ZM1180.74 218.879C1179.84 221.346 1177.05 222.602 1174.52 221.68C1171.98 220.759 1170.65 218.002 1171.55 215.536L1183.66 182.273C1184.56 179.807 1187.35 178.55 1189.88 179.472C1192.41 180.393 1193.74 183.15 1192.84 185.616L1180.74 218.879ZM1196.24 219.234C1195.35 221.701 1192.55 222.957 1190.02 222.036C1187.49 221.114 1186.16 218.357 1187.06 215.891L1195.76 191.969C1196.66 189.502 1199.45 188.246 1201.99 189.167C1204.52 190.089 1205.85 192.846 1204.95 195.312L1196.24 219.234Z" fill="white"/>
</g>
<path d="M81.5689 55.8484H79.5669L69.539 39.0953C69.1351 38.4207 68.352 38 67.4999 38C66.6478 38 65.8647 38.4207 65.4609 39.0953L55.4332 55.8484H53.4312C48.9314 55.8484 45.2708 59.1398 45.2708 63.1853V128.663C45.2708 132.709 48.9316 136 53.4312 136H81.5687C86.0684 136 89.7291 132.709 89.7291 128.663V63.1853C89.7293 59.1398 86.0684 55.8484 81.5689 55.8484ZM69.8155 48.3433L74.3076 55.8484H69.8155V48.3433ZM65.1844 48.3435V55.8484H60.6922L65.1844 48.3435ZM52.919 60.0496L51.9907 61.6004C51.3847 62.6128 51.8064 63.8752 52.9324 64.4203C54.0582 64.9651 55.4628 64.586 56.0686 63.5736L58.2003 60.0123H76.8L78.9317 63.5736C79.3499 64.2722 80.1481 64.6692 80.9726 64.6692C81.3431 64.6692 81.7189 64.5891 82.0679 64.4203C83.1939 63.8754 83.6156 62.613 83.0094 61.6004L82.0811 60.0496C83.7846 60.274 85.098 61.5927 85.098 63.1855V65.0088H49.9018V63.1855C49.9018 61.5925 51.2154 60.2738 52.919 60.0496ZM85.0982 69.1723V123.717H49.9021V69.1723H85.0982ZM81.5689 131.836H53.4314C51.4852 131.836 49.9021 130.413 49.9021 128.663V127.881H85.0982V128.663C85.0982 130.413 83.5149 131.836 81.5689 131.836Z" fill="white"/>
<path d="M728.906 880.187H724.844C724.305 880.187 723.788 880.401 723.407 880.782L722.662 881.528L720.465 879.771C718.394 878.124 716.003 876.926 713.443 876.254C710.884 875.581 708.213 875.449 705.6 875.865C704.214 873.493 702.424 871.381 700.311 869.625L691.613 862.377C691.557 862.331 691.499 862.287 691.439 862.247L686.22 858.768C683.909 857.231 681.317 856.167 678.593 855.637C675.868 855.108 673.066 855.123 670.348 855.683L660.979 850.062L657.429 847.399C654.158 844.957 650.187 843.633 646.105 843.625H644.154C642.817 843.625 641.493 843.879 640.252 844.372L636.595 841.935L624.408 833.81C623.995 833.535 623.495 833.42 623.004 833.488C622.512 833.556 622.062 833.801 621.739 834.178L609.551 848.397C609.218 848.785 609.044 849.285 609.064 849.797C609.084 850.308 609.296 850.793 609.657 851.155L612.239 853.737C613.455 854.951 615.102 855.633 616.82 855.634C616.939 855.634 617.058 855.63 617.177 855.624C618.406 855.555 619.589 855.137 620.589 854.421L623.622 858.97C623.789 859.22 624.009 859.43 624.267 859.585C624.525 859.74 624.813 859.835 625.112 859.865C625.411 859.895 625.713 859.857 625.996 859.756C626.279 859.655 626.536 859.492 626.749 859.28L627.745 858.284L630.498 859.66C630.879 859.851 631.311 859.917 631.732 859.849C632.152 859.78 632.541 859.581 632.843 859.28L634.108 858.015C634.638 859.432 635.468 860.718 636.539 861.787L637.219 862.466C636.742 864.165 636.671 865.952 637.012 867.683C637.353 869.415 638.097 871.041 639.183 872.432C638.132 875.175 637.951 878.174 638.662 881.024L640.992 890.344H637.5C636.589 890.341 635.686 890.519 634.845 890.868C634.003 891.217 633.238 891.729 632.596 892.375L631.406 893.565C630.76 894.207 630.248 894.971 629.899 895.813C629.551 896.655 629.372 897.557 629.375 898.469C629.375 899.007 629.589 899.524 629.97 899.905C630.351 900.286 630.868 900.5 631.406 900.5H646.011C647.523 900.504 648.983 899.944 650.105 898.929C651.226 897.914 651.928 896.518 652.074 895.012L653.101 884.75C653.537 880.449 653.093 876.104 651.796 871.98C651.943 871.332 652.068 870.682 652.169 870.031H659.514L664.991 871.857C670.453 875.918 676.419 879.254 682.738 881.783L683.464 882.073C683.478 882.079 683.492 882.084 683.506 882.089L699.756 888.183C699.858 888.221 699.963 888.251 700.07 888.273L717.484 891.756C716.636 892.21 715.928 892.887 715.435 893.713C714.943 894.539 714.684 895.484 714.688 896.446V898.469C714.688 899.007 714.902 899.524 715.282 899.905C715.663 900.286 716.18 900.5 716.719 900.5H728.906C729.445 900.5 729.962 900.286 730.343 899.905C730.723 899.524 730.937 899.007 730.938 898.469V882.219C730.937 881.68 730.723 881.163 730.343 880.782C729.962 880.401 729.445 880.187 728.906 880.187ZM683.967 862.148L687.845 864.733L683.05 877.52C677.849 875.333 672.912 872.565 668.333 869.269L671.56 859.588C675.871 858.804 680.318 859.722 683.967 862.148V862.148ZM618.704 850.665C618.492 850.93 618.226 851.148 617.924 851.303C617.623 851.459 617.291 851.549 616.952 851.567C616.613 851.586 616.274 851.533 615.957 851.412C615.64 851.291 615.352 851.104 615.112 850.864L613.86 849.612L623.652 838.188L632.315 843.963C631.445 844.543 630.423 844.853 629.377 844.853C628.332 844.854 627.31 844.545 626.439 843.966C626.016 843.684 625.503 843.571 625.001 843.649C624.499 843.727 624.044 843.99 623.726 844.387L618.704 850.665V850.665ZM633.454 853.781H633.437C632.899 853.781 632.382 853.995 632.001 854.376L631.005 855.372L628.252 853.996C627.871 853.805 627.439 853.739 627.018 853.807C626.598 853.876 626.209 854.075 625.907 854.376L625.628 854.655L623.395 851.305L625.853 848.232C627.526 848.91 629.359 849.09 631.132 848.751C632.906 848.411 634.543 847.566 635.847 846.318L636.559 846.793C634.687 848.652 633.579 851.145 633.454 853.781V853.781ZM649.058 884.346L648.032 894.608C647.983 895.11 647.749 895.575 647.375 895.914C647.002 896.252 646.515 896.439 646.011 896.437H634.279L635.469 895.248C635.735 894.98 636.051 894.768 636.4 894.623C636.749 894.479 637.123 894.405 637.5 894.406H643.594C643.902 894.406 644.207 894.336 644.484 894.2C644.762 894.065 645.005 893.868 645.195 893.625C645.385 893.382 645.517 893.098 645.581 892.796C645.645 892.494 645.639 892.182 645.564 891.882L642.603 880.039C642.011 877.665 642.286 875.159 643.379 872.971C643.57 872.589 643.636 872.158 643.568 871.737C643.499 871.316 643.3 870.927 642.999 870.626C641.75 869.383 640.998 867.727 640.885 865.969H648.435C648.417 867.857 648.176 869.737 647.717 871.57C647.623 871.944 647.638 872.338 647.76 872.705C649.014 876.449 649.457 880.417 649.058 884.346V884.346ZM660.486 866.073C660.279 866.004 660.062 865.969 659.844 865.969H652.499C652.524 862.351 651.843 858.763 650.494 855.407L649.542 853.027L645.77 854.536L646.722 856.916C647.365 858.524 647.832 860.197 648.115 861.906H641.559C641.559 861.64 641.507 861.376 641.406 861.129C641.305 860.883 641.156 860.659 640.968 860.47L639.412 858.914C638.729 858.231 638.206 857.405 637.881 856.496C637.556 855.587 637.437 854.617 637.532 853.656C637.627 852.695 637.934 851.767 638.431 850.939C638.928 850.112 639.602 849.404 640.406 848.869L640.533 848.784C641.605 848.068 642.865 847.686 644.154 847.687H646.105C649.308 847.694 652.424 848.733 654.992 850.649L658.625 853.375C658.681 853.417 658.739 853.456 658.799 853.492L667.558 858.747L664.653 867.462L660.486 866.073ZM701.028 884.322L686.834 878.999L691.21 867.329L697.71 872.746C699.799 874.482 701.503 876.634 702.714 879.065C702.921 879.478 703.263 879.808 703.683 880.001C704.102 880.194 704.576 880.239 705.024 880.127C707.247 879.578 709.566 879.546 711.803 880.035C714.04 880.523 716.135 881.518 717.927 882.943L720.438 884.951L719.421 888L701.028 884.322ZM726.875 896.437H718.75C718.751 896.203 718.817 895.973 718.941 895.774C719.065 895.575 719.242 895.415 719.452 895.311L721.261 894.406H724.844V890.344H722.923L724.588 885.347L725.685 884.25H726.875V896.437Z" fill="white"/>
<path d="M754.784 97.9427C755.039 98.0843 755.325 98.1551 755.61 98.1551C755.885 98.1551 756.161 98.0894 756.409 97.9579C760.084 96.0095 764.265 94.9795 768.5 94.9795C772.735 94.9795 776.916 96.0094 780.591 97.9579C781.097 98.2261 781.716 98.2204 782.216 97.9429C782.717 97.6652 783.024 97.1574 783.024 96.6083V90.2561C783.024 84.8858 778.409 80.5167 772.736 80.5167H764.264C758.591 80.5167 753.976 84.8858 753.976 90.2561V96.6085C753.976 97.1572 754.284 97.6652 754.784 97.9427ZM757.244 90.2558C757.244 86.5913 760.393 83.6103 764.264 83.6103H772.736C776.606 83.6103 779.756 86.5915 779.756 90.2558V94.1134C776.224 92.6504 772.382 91.8856 768.5 91.8856C764.618 91.8856 760.776 92.6504 757.244 94.1136V90.2558Z" fill="white"/>
<path d="M789.907 101.281V90.2558C789.907 81.2924 782.204 74 772.736 74H764.264C754.796 74 747.093 81.2924 747.093 90.2558V101.281C742.802 106.073 740.447 112.144 740.447 118.443C740.447 133.086 753.031 145 768.5 145C783.969 145 796.553 133.087 796.553 118.443C796.553 112.144 794.198 106.073 789.907 101.281ZM768.5 141.906C754.833 141.906 743.715 131.38 743.715 118.443C743.715 112.702 745.929 107.177 749.949 102.885C750.215 102.602 750.361 102.236 750.361 101.858V90.2558C750.361 82.9984 756.598 77.0939 764.264 77.0939H772.736C780.402 77.0939 786.639 82.9984 786.639 90.2558V101.858C786.639 102.236 786.786 102.602 787.051 102.885C791.071 107.177 793.285 112.702 793.285 118.443C793.285 131.38 782.166 141.906 768.5 141.906Z" fill="white"/>
<path d="M774.191 97.7195C772.342 97.2663 770.427 97.0364 768.5 97.0364C767.598 97.0364 766.866 97.729 766.866 98.5833C766.866 99.4377 767.598 100.13 768.5 100.13C770.151 100.13 771.79 100.327 773.371 100.715C773.509 100.748 773.647 100.764 773.782 100.764C774.509 100.764 775.172 100.302 775.363 99.6049C775.589 98.7779 775.064 97.9338 774.191 97.7195Z" fill="white"/>
<path d="M780.416 100.243C779.649 99.7925 778.642 100.016 778.166 100.742C777.69 101.468 777.927 102.422 778.694 102.872C784.439 106.245 787.868 112.075 787.868 118.466C787.868 119.32 788.6 120.013 789.503 120.013C790.405 120.013 791.137 119.32 791.137 118.466C791.137 110.997 787.129 104.184 780.416 100.243Z" fill="white"/>
<path d="M768.5 136.801C766.276 136.801 764.096 136.448 762.021 135.751C761.171 135.465 760.237 135.886 759.935 136.691C759.633 137.497 760.078 138.381 760.928 138.667C763.355 139.482 765.902 139.895 768.5 139.895C769.402 139.895 770.134 139.202 770.134 138.348C770.134 137.494 769.402 136.801 768.5 136.801Z" fill="white"/>
<path d="M757.678 133.675C752.326 130.255 749.132 124.569 749.132 118.466C749.132 117.611 748.4 116.919 747.498 116.919C746.595 116.919 745.863 117.611 745.863 118.466C745.863 125.599 749.597 132.243 755.849 136.239C756.13 136.418 756.448 136.504 756.762 136.504C757.287 136.504 757.803 136.265 758.118 135.822C758.623 135.114 758.426 134.153 757.678 133.675Z" fill="white"/>
<path d="M1307.16 570.646V547.156C1307.16 546.931 1307.11 546.707 1307.01 546.499C1306.91 546.29 1306.76 546.1 1306.58 545.941L1296.16 536.844H1303.22C1303.6 536.844 1303.97 536.747 1304.29 536.566C1304.61 536.385 1304.86 536.127 1305.02 535.823L1312.89 520.354C1313.01 520.125 1313.07 519.876 1313.06 519.626C1313.06 519.375 1312.99 519.128 1312.86 518.903C1312.74 518.677 1312.56 518.479 1312.33 518.321C1312.11 518.163 1311.85 518.05 1311.57 517.989L1303.7 516.27C1303.26 516.175 1302.8 516.213 1302.4 516.376C1301.99 516.539 1301.66 516.819 1301.46 517.169L1296.1 526.531H1273.69C1273.17 526.531 1272.66 526.712 1272.3 527.035C1271.93 527.357 1271.72 527.794 1271.72 528.25V535.125C1271.72 535.581 1271.93 536.018 1272.3 536.34C1272.66 536.663 1273.17 536.844 1273.69 536.844H1280.75L1295.34 549.587V570.596L1286.55 579.813H1273.93L1274.16 579.761C1274.43 579.704 1274.67 579.599 1274.89 579.455C1275.1 579.31 1275.28 579.128 1275.41 578.921C1275.54 578.713 1275.62 578.484 1275.65 578.248C1275.67 578.013 1275.64 577.775 1275.56 577.55L1273.59 572.394C1273.46 572.052 1273.21 571.754 1272.87 571.543C1272.53 571.332 1272.13 571.219 1271.72 571.219H1265.35L1259.84 553.58C1259.8 553.471 1259.76 553.365 1259.7 553.264L1250.06 536.438V531.266L1253.73 533.166C1254.04 533.323 1254.39 533.406 1254.74 533.406H1260.15C1260.6 533.406 1261.04 533.27 1261.39 533.021C1261.75 532.772 1261.99 532.425 1262.08 532.038L1263.31 526.882C1263.37 526.649 1263.37 526.409 1263.31 526.177C1263.25 525.945 1263.14 525.725 1262.98 525.532C1262.83 525.339 1262.62 525.176 1262.39 525.055C1262.16 524.933 1261.9 524.855 1261.63 524.826L1256.51 524.267L1251.97 519.38C1252.65 518.379 1253 517.237 1253 516.073C1253 514.91 1252.64 513.769 1251.96 512.77L1248.09 507.149V505.906H1248.59C1249.5 505.905 1250.38 505.588 1251.02 505.024C1251.67 504.46 1252.03 503.696 1252.03 502.898V496.516C1252.03 495.643 1251.8 494.782 1251.35 494C1250.77 492.971 1249.87 492.098 1248.77 491.473C1247.67 490.848 1246.39 490.494 1245.07 490.447C1245.01 490.44 1244.95 490.437 1244.89 490.438H1238.49C1236.91 490.434 1235.34 490.704 1233.87 491.233C1232.41 491.762 1231.08 492.539 1229.97 493.519C1229.22 494.179 1228.32 494.702 1227.34 495.058C1226.35 495.414 1225.3 495.596 1224.23 495.594H1218.56C1218.17 495.594 1217.79 495.695 1217.47 495.883C1217.14 496.072 1216.89 496.341 1216.74 496.655C1216.59 496.969 1216.56 497.314 1216.63 497.648C1216.71 497.981 1216.89 498.288 1217.17 498.528L1220.12 501.106C1221.24 502.086 1222.57 502.863 1224.03 503.392C1225.49 503.921 1227.06 504.191 1228.65 504.188H1229.29C1231.67 504.19 1234 503.575 1235.98 502.42L1236.28 502.243V505.906C1236.17 505.907 1236.05 505.916 1235.94 505.934C1234.18 506.068 1232.53 506.741 1231.29 507.834L1222.55 515.464C1221.91 516.021 1221.4 516.684 1221.05 517.414C1220.71 518.144 1220.53 518.927 1220.53 519.718V519.82C1220.53 521.227 1221.1 522.589 1222.13 523.671L1230.83 532.788C1231.02 532.982 1231.25 533.137 1231.51 533.244C1231.77 533.351 1232.06 533.406 1232.34 533.406H1233.77C1233.4 535.321 1233.47 537.281 1233.97 539.173L1228.68 553.045L1213.63 564.541L1208.1 566.151C1207.85 566.222 1207.62 566.335 1207.43 566.483C1207.23 566.631 1207.07 566.811 1206.96 567.013L1204.99 570.45C1204.84 570.709 1204.77 570.996 1204.78 571.285C1204.8 571.574 1204.89 571.855 1205.06 572.103L1210.36 579.813H1202.81C1200.72 579.813 1198.72 580.537 1197.24 581.826C1195.77 583.115 1194.94 584.864 1194.94 586.688C1194.94 588.511 1195.77 590.26 1197.24 591.549C1198.72 592.838 1200.72 593.563 1202.81 593.563H1311.09C1311.62 593.563 1312.12 593.381 1312.49 593.059C1312.86 592.737 1313.06 592.3 1313.06 591.844V578.094C1313.06 577.722 1312.92 577.36 1312.67 577.063L1307.16 570.646ZM1250.06 522.786L1253.95 526.969C1254.27 527.314 1254.73 527.537 1255.23 527.592L1259.02 528.006L1258.55 529.969H1255.28L1250.06 527.271V522.786ZM1256.09 554.648L1261.42 571.696L1257.12 572.634L1252.9 564.037C1252.26 562.731 1251.74 561.382 1251.34 560.004L1250 555.334C1249.95 555.124 1249.84 554.927 1249.7 554.751L1239.94 542.83L1238.86 540.937C1238.47 540.261 1238.16 539.553 1237.93 538.824C1237.93 538.792 1237.92 538.759 1237.9 538.729C1237.38 536.989 1237.33 535.164 1237.78 533.406H1246.12V536.844C1246.12 537.111 1246.2 537.374 1246.33 537.612L1256.09 554.648ZM1255.42 579.813H1218.88L1219.19 579.724C1219.58 579.61 1219.92 579.391 1220.16 579.099C1220.4 578.806 1220.53 578.454 1220.53 578.094V572.139L1237.37 562.336C1237.69 562.152 1237.94 561.89 1238.09 561.584L1242.72 552.146L1246.27 556.485L1247.52 560.839C1247.97 562.395 1248.55 563.918 1249.28 565.393L1254.1 575.208L1255.42 579.813ZM1240.98 529.969C1240.98 529.969 1242.19 526.712 1242.19 526.531H1246.12V529.969H1240.98ZM1248.58 514.538C1248.97 515.109 1249.13 515.777 1249.04 516.437C1248.74 516.292 1248.41 516.217 1248.06 516.22C1247.72 516.224 1247.39 516.306 1247.09 516.457C1246.8 516.609 1246.55 516.825 1246.38 517.085C1246.21 517.345 1246.12 517.639 1246.12 517.938V523.094H1238.25V519.176L1242.81 517.849C1243.2 517.735 1243.54 517.516 1243.78 517.224C1244.03 516.931 1244.16 516.579 1244.16 516.219V512.486C1244.16 511.388 1243.84 510.307 1243.24 509.344H1245.01L1248.58 514.538ZM1240.22 497.908C1240.22 497.399 1240.33 496.896 1240.55 496.427C1240.78 495.957 1241.1 495.531 1241.52 495.173L1241.77 494.952C1242.16 494.61 1242.62 494.338 1243.13 494.153C1243.65 493.968 1244.19 493.874 1244.75 493.875C1245.57 493.873 1246.36 494.127 1246.98 494.592L1243.24 495.682C1242.74 495.826 1242.33 496.136 1242.1 496.544L1240.67 499.031H1240.22V497.908ZM1240.22 502.469H1241.89C1242.26 502.469 1242.61 502.38 1242.92 502.212C1243.24 502.044 1243.49 501.804 1243.65 501.519L1245.25 498.718L1248.09 497.893V502.469H1246.12C1245.6 502.469 1245.1 502.65 1244.73 502.972C1244.36 503.294 1244.16 503.732 1244.16 504.188V505.906H1240.22V502.469ZM1233.79 499.56C1232.46 500.337 1230.89 500.751 1229.29 500.75H1228.65C1226.7 500.755 1224.82 500.144 1223.35 499.031H1224.23C1225.81 499.035 1227.38 498.765 1228.85 498.236C1230.31 497.707 1231.64 496.93 1232.75 495.95C1234.06 494.798 1235.79 494.079 1237.64 493.914C1236.75 495.1 1236.28 496.489 1236.28 497.908V498.112L1233.79 499.56ZM1233.27 529.969L1225.15 521.47C1224.71 521.006 1224.47 520.422 1224.47 519.819V519.717C1224.47 519.379 1224.54 519.043 1224.69 518.73C1224.84 518.417 1225.06 518.133 1225.33 517.894L1234.07 510.264C1234.58 509.825 1235.22 509.525 1235.92 509.404C1236.62 509.283 1237.34 509.345 1238 509.583C1238.65 509.821 1239.22 510.224 1239.61 510.74C1240.01 511.257 1240.22 511.865 1240.22 512.486V514.98L1236.81 515.971L1235.71 515.004C1235.52 514.845 1235.31 514.718 1235.07 514.632C1234.83 514.545 1234.57 514.501 1234.31 514.501C1234.05 514.501 1233.8 514.545 1233.56 514.632C1233.32 514.718 1233.1 514.845 1232.92 515.004L1228.98 518.442C1228.66 518.723 1228.46 519.092 1228.42 519.488C1228.37 519.883 1228.49 520.28 1228.74 520.611L1232.68 525.767C1232.92 526.085 1233.28 526.323 1233.69 526.444L1237.73 527.619L1236.83 529.969H1233.27ZM1234.31 518.649V521.714L1232.91 519.875L1234.31 518.649ZM1231.67 555.325C1231.93 555.124 1232.13 554.865 1232.24 554.575L1236.25 544.074L1236.49 544.487C1236.54 544.568 1236.59 544.645 1236.65 544.718L1240.05 548.872L1234.7 559.76L1219.11 568.835L1217.22 566.363L1231.67 555.325ZM1208.99 571.144L1210.12 569.187L1213.82 568.108L1216.59 571.739V576.855L1213.53 577.746L1208.99 571.144ZM1202.81 590.125C1202.03 590.125 1201.27 589.923 1200.62 589.546C1199.98 589.168 1199.47 588.631 1199.17 588.003C1198.88 587.375 1198.8 586.684 1198.95 586.017C1199.1 585.35 1199.48 584.738 1200.03 584.257C1200.58 583.776 1201.28 583.449 1202.04 583.316C1202.81 583.183 1203.6 583.251 1204.32 583.512C1205.04 583.772 1205.65 584.212 1206.09 584.778C1206.52 585.343 1206.75 586.008 1206.75 586.688C1206.75 587.599 1206.33 588.473 1205.6 589.117C1204.86 589.761 1203.86 590.124 1202.81 590.125ZM1227.5 590.125H1209.63C1210.32 589.081 1210.69 587.895 1210.69 586.688C1210.69 585.48 1210.32 584.294 1209.63 583.25H1227.5C1226.8 584.294 1226.44 585.48 1226.44 586.688C1226.44 587.895 1226.8 589.081 1227.5 590.125ZM1234.31 590.125C1233.53 590.125 1232.77 589.923 1232.12 589.546C1231.48 589.168 1230.97 588.631 1230.67 588.003C1230.38 587.375 1230.3 586.684 1230.45 586.017C1230.6 585.35 1230.98 584.738 1231.53 584.257C1232.08 583.776 1232.78 583.449 1233.54 583.316C1234.31 583.183 1235.1 583.251 1235.82 583.512C1236.54 583.772 1237.15 584.212 1237.59 584.778C1238.02 585.343 1238.25 586.008 1238.25 586.688C1238.25 587.599 1237.83 588.473 1237.1 589.117C1236.36 589.761 1235.36 590.124 1234.31 590.125ZM1259 590.125H1241.13C1241.82 589.081 1242.19 587.895 1242.19 586.688C1242.19 585.48 1241.82 584.294 1241.13 583.25H1257.93H1257.94H1257.95H1259C1258.3 584.294 1257.94 585.48 1257.94 586.688C1257.94 587.895 1258.3 589.081 1259 590.125H1259ZM1265.81 590.125C1265.03 590.125 1264.27 589.923 1263.62 589.546C1262.98 589.168 1262.47 588.631 1262.17 588.003C1261.88 587.375 1261.8 586.684 1261.95 586.017C1262.1 585.35 1262.48 584.738 1263.03 584.257C1263.58 583.776 1264.28 583.449 1265.04 583.316C1265.81 583.183 1266.6 583.251 1267.32 583.512C1268.04 583.772 1268.65 584.212 1269.09 584.778C1269.52 585.343 1269.75 586.008 1269.75 586.688C1269.75 587.599 1269.33 588.473 1268.6 589.117C1267.86 589.761 1266.86 590.124 1265.81 590.125ZM1259.37 579.447L1258.36 575.907L1264.09 574.656H1270.3L1271.15 576.876L1259.37 579.447ZM1285.5 590.125H1272.63C1273.32 589.081 1273.69 587.895 1273.69 586.688C1273.69 585.48 1273.32 584.294 1272.63 583.25H1285.5V590.125ZM1275.66 533.406V529.969H1297.31C1297.68 529.969 1298.04 529.88 1298.35 529.712C1298.66 529.544 1298.91 529.304 1299.07 529.019L1304.27 519.939L1308.34 520.828L1301.94 533.406H1275.66ZM1286.32 536.844H1290.59L1303.22 547.868V569.5H1299.28V548.875C1299.28 548.649 1299.23 548.426 1299.13 548.217C1299.03 548.009 1298.89 547.819 1298.7 547.66L1286.32 536.844ZM1309.12 590.125H1289.44V582.154L1298.23 572.938H1304.2L1309.12 578.667V590.125Z" fill="white"/>
<path d="M1221.12 870.875C1217.09 870.875 1214 874.328 1214 878.844V897.438C1214 899.031 1214.95 900.094 1216.38 900.094H1218.51C1217.33 906.203 1212.58 910.719 1206.88 910.719C1199.28 910.719 1192.62 906.469 1188.82 899.828C1197.61 897.969 1204.5 889.469 1204.5 878.844V860.25C1204.5 852.812 1199.28 846.969 1192.62 846.969C1185.98 846.969 1180.75 852.812 1180.75 860.25V886.812C1180.75 889.469 1180.99 891.859 1181.7 894.25C1175.52 892.391 1171.25 886.016 1171.25 878.844V873.531H1173.62C1175.05 873.531 1176 872.469 1176 870.875V852.281C1176 847.766 1172.91 844.312 1168.88 844.312C1164.84 844.312 1161.75 847.766 1161.75 852.281V870.875C1161.75 872.469 1162.7 873.531 1164.12 873.531H1166.5V878.844C1166.5 889.734 1174.1 898.766 1183.6 900.094C1187.88 909.656 1196.66 916.031 1206.88 916.031C1215.19 916.031 1222.08 909.125 1223.26 900.094H1225.88C1227.3 900.094 1228.25 899.031 1228.25 897.438V878.844C1228.25 874.328 1225.16 870.875 1221.12 870.875ZM1186.69 894.781C1185.98 892.125 1185.5 889.469 1185.5 886.812V860.25C1185.5 855.734 1188.59 852.281 1192.62 852.281C1196.66 852.281 1199.75 855.734 1199.75 860.25V878.844C1199.75 887.078 1194.05 893.984 1186.69 894.781Z" fill="white"/>
<path d="M531.825 247.047L522.638 243.859L532.875 202.156C535.763 200.297 538.125 197.906 540.225 195.25C541.013 194.188 540.75 192.328 539.7 191.531C538.65 190.734 536.813 191 536.025 192.063C531.563 198.172 524.475 201.625 517.125 201.625C515.55 201.625 514.5 202.688 514.5 204.281C514.5 205.875 515.55 206.938 517.125 206.938C520.275 206.938 523.688 206.406 526.575 205.344L517.388 242.266L498.488 235.625C498.488 235.359 498.488 235.359 498.488 235.094L489.825 217.563H493.5C495.075 217.563 496.125 216.5 496.125 214.906C496.125 213.313 495.075 212.25 493.5 212.25H485.1C480.9 212.25 477.225 210.656 474.338 207.734C473.287 206.672 471.713 206.672 470.663 207.734C469.613 208.797 469.613 210.391 470.663 211.453C474.338 215.172 479.062 217.297 484.05 217.563L491.663 233.234C486.15 231.906 480.375 232.969 475.65 236.422C470.4 240.406 467.25 246.25 467.25 252.891C467.25 264.313 476.175 273.344 487.463 273.344H527.625C534.975 273.344 541.013 267.234 541.013 259.797C540.75 253.953 537.075 248.906 531.825 247.047ZM514.5 257.406H508.988C507.938 261.922 503.738 265.375 498.75 265.375C492.975 265.375 488.25 260.594 488.25 254.75C488.25 248.906 492.975 244.125 498.75 244.125C503.738 244.125 507.675 247.578 508.988 252.094H514.5C516.075 252.094 517.125 253.156 517.125 254.75C517.125 256.344 516.075 257.406 514.5 257.406Z" fill="white"/>
<g clip-path="url(#clip2)">
<path d="M151.2 372C150.003 372.006 148.829 372.288 147.8 372.815V369.067C147.8 365.827 144.756 363.2 141 363.2C137.244 363.2 134.2 365.827 134.2 369.067V382.267H126.829L120.6 376.849V370.794C120.6 369.429 119.969 368.119 118.847 367.156C117.725 366.192 116.204 365.654 114.621 365.661C113.573 365.667 112.546 365.915 111.648 366.381C110.812 364.631 108.927 363.42 106.744 363.23C104.562 363.04 102.434 363.901 101.21 365.472C99.7435 364.51 97.8419 364.192 96.0655 364.612C94.289 365.031 92.84 366.14 92.1454 367.612C91.2288 367.144 90.1843 366.895 89.1194 366.892C85.8507 366.894 83.2019 369.18 83.2 372V382.267H79.868V369.067C79.868 365.827 76.8235 363.2 73.068 363.2C69.3125 363.2 66.268 365.827 66.268 369.067V372.815C65.2389 372.288 64.0652 372.006 62.868 372C59.1125 372 56.068 374.627 56.068 377.867V399.867C56.068 403.107 59.1125 405.733 62.868 405.733C64.0652 405.727 65.2389 405.446 66.268 404.918V408.667C66.268 411.907 69.3125 414.533 73.068 414.533C76.8235 414.533 79.868 411.907 79.868 408.667V395.467H84.9V396.391C84.7891 399.074 85.5638 401.729 87.1338 404.047L89.1075 406.992C89.6284 407.649 89.9365 408.415 90 409.209V422.409C90.0019 423.729 91.2414 424.798 92.771 424.8H114.412C115.951 424.798 117.198 423.722 117.2 422.395V409.063C117.2 408.803 117.284 408.549 117.443 408.329L126.179 395.467H134.2V408.667C134.2 411.907 137.244 414.533 141 414.533C144.756 414.533 147.8 411.907 147.8 408.667V404.918C148.829 405.446 150.003 405.727 151.2 405.733C154.956 405.733 158 403.107 158 399.867V377.867C158 374.627 154.956 372 151.2 372ZM114.679 368.594C116.078 368.603 117.206 369.587 117.2 370.794L117.2 373.892L116.396 373.192C115.423 372.361 114.109 371.894 112.739 371.893H112.722C112.514 371.899 112.306 371.916 112.1 371.946V370.794C112.1 370.207 112.373 369.643 112.857 369.23C113.342 368.817 113.998 368.588 114.679 368.594ZM103.6 368.333C103.6 367.118 104.742 366.133 106.15 366.133C107.558 366.133 108.7 367.118 108.7 368.333V373.76C106.884 376.168 106.884 379.272 108.7 381.68V382.567C108.316 383.497 107.294 384.116 106.15 384.113C105.477 384.119 104.829 383.893 104.35 383.485C103.871 383.077 103.601 382.52 103.6 381.94V368.333ZM95.1 369.542C95.1 368.327 96.2417 367.342 97.65 367.342C99.0583 367.342 100.2 368.327 100.2 369.542V381.937C100.199 383.139 99.0696 384.115 97.6755 384.116H97.6245C96.2304 384.115 95.1009 383.139 95.1 381.937V369.542ZM86.6 372C86.6 370.785 87.7417 369.8 89.15 369.8C90.5583 369.8 91.7 370.785 91.7 372V384.38C91.7 385.595 90.5583 386.58 89.15 386.58C87.7417 386.58 86.6 385.595 86.6 384.38V372ZM62.868 402.8C60.9902 402.8 59.468 401.487 59.468 399.867V377.867C59.468 376.247 60.9902 374.933 62.868 374.933C64.7458 374.933 66.268 376.247 66.268 377.867V399.867C66.268 401.487 64.7458 402.8 62.868 402.8ZM76.468 408.667C76.468 410.287 74.9458 411.6 73.068 411.6C71.1902 411.6 69.668 410.287 69.668 408.667V369.067C69.668 367.447 71.1902 366.133 73.068 366.133C74.9458 366.133 76.468 367.447 76.468 369.067V408.667ZM79.868 385.2H83.2969C83.7641 387.678 86.2401 389.501 89.15 389.509C91.5588 389.507 93.7287 388.252 94.6461 386.331C95.5459 386.796 96.5739 387.044 97.6228 387.049H97.6738C99.2654 387.05 100.79 386.495 101.9 385.511C101.919 385.529 101.932 385.549 101.953 385.567C103.069 386.521 104.578 387.055 106.15 387.049C108.374 387.045 110.42 386 111.495 384.32C111.665 384.467 111.853 384.631 112.017 384.775L114.036 386.535C110.987 387.804 108.362 389.722 106.408 392.108C106.289 392.255 106.196 392.401 106.084 392.548H79.868V385.2ZM114.526 406.816C114.048 407.492 113.797 408.27 113.8 409.063V421.867H93.4V409.209C93.3529 407.888 92.8821 406.603 92.04 405.499L90.051 402.539C88.8049 400.674 88.1977 398.542 88.3 396.391V395.467H104.28C104.056 395.921 103.829 396.377 103.639 396.856C103.336 397.623 103.812 398.456 104.701 398.718C105.59 398.979 106.556 398.569 106.859 397.802C107.279 396.728 107.829 395.696 108.499 394.722C108.703 394.405 108.931 394.1 109.179 393.808C111.21 391.312 114.124 389.451 117.484 388.504C118.076 388.376 118.543 387.985 118.707 387.478C118.872 386.971 118.709 386.427 118.281 386.052C118.281 386.052 117.004 384.935 114.444 382.713C113.725 382.077 112.896 381.363 111.959 380.552L111.825 380.435C111.774 380.37 111.717 380.308 111.655 380.251C110.387 378.73 110.412 376.674 111.716 375.175C111.976 374.931 112.352 374.804 112.736 374.831C113.202 374.83 113.65 374.988 113.982 375.271L126.38 386.04C127.243 386.78 127.397 387.937 126.752 388.827L114.526 406.816ZM128.174 392.533L129.671 390.333C130.766 388.764 130.822 386.814 129.819 385.2H134.2V392.533H128.174ZM144.4 408.667C144.4 410.287 142.878 411.6 141 411.6C139.122 411.6 137.6 410.287 137.6 408.667V369.067C137.6 367.447 139.122 366.133 141 366.133C142.878 366.133 144.4 367.447 144.4 369.067V408.667ZM154.6 399.867C154.6 401.487 153.078 402.8 151.2 402.8C149.322 402.8 147.8 401.487 147.8 399.867V377.867C147.8 376.247 149.322 374.933 151.2 374.933C153.078 374.933 154.6 376.247 154.6 377.867V399.867Z" fill="white"/>
</g>
<g clip-path="url(#clip3)">
<path d="M349.809 670.651H296.222V661.027H308.008C309.165 661.027 310.103 660.095 310.103 658.947V651.838H312.635C313.792 651.838 314.729 650.906 314.729 649.757V645.163C314.729 638.949 309.638 633.894 303.381 633.894H296.221V624.27H303.381C304.538 624.27 305.476 623.339 305.476 622.19V599.216C305.476 593.713 301.482 589.121 296.222 588.142V569.134H326.516C327.912 569.134 329.048 570.262 329.048 571.648V583.352H326.358C322.739 583.352 319.794 586.276 319.794 589.87V617.752C319.794 621.346 322.739 624.269 326.358 624.269H335.928C339.547 624.269 342.492 621.346 342.492 617.752V589.87C342.492 586.276 339.547 583.352 335.928 583.352H333.238V571.648C333.238 567.967 330.222 564.973 326.516 564.973H296.222V555.35H301.068H303.381C304.538 555.35 305.476 554.418 305.476 553.27C305.476 552.121 304.538 551.19 303.381 551.19H303.162V544.08C303.162 542.931 302.225 542 301.068 542H277.932C276.775 542 275.838 542.931 275.838 544.08V551.189H275.619C274.462 551.189 273.524 552.121 273.524 553.269C273.524 554.418 274.462 555.349 275.619 555.349H277.933H282.778V564.973H252.484C248.777 564.973 245.762 567.967 245.762 571.648V583.352H243.072C239.453 583.352 236.508 586.275 236.508 589.869V617.751C236.508 621.345 239.453 624.269 243.072 624.269H252.642C256.261 624.269 259.206 621.345 259.206 617.751V589.87C259.206 586.276 256.261 583.352 252.642 583.352H249.952V571.648C249.952 570.262 251.087 569.134 252.484 569.134H282.778V588.142C277.518 589.121 273.524 593.713 273.524 599.216V622.189C273.524 623.338 274.462 624.269 275.619 624.269H282.778V633.893H275.619C269.361 633.893 264.27 638.949 264.27 645.162V649.757C264.27 650.906 265.208 651.837 266.365 651.837H268.897V658.946C268.897 660.095 269.835 661.026 270.992 661.026H282.778V670.65H229.191C225.571 670.65 222.627 673.574 222.627 677.168V681.92C222.627 683.069 223.565 684 224.722 684H241.573C242.729 684 243.667 683.069 243.667 681.92C243.667 680.771 242.729 679.84 241.573 679.84H226.817V677.168C226.817 675.868 227.882 674.811 229.191 674.811H284.873H294.127H349.809C351.118 674.811 352.183 675.868 352.183 677.168V679.84H249.952C248.795 679.84 247.857 680.771 247.857 681.92C247.857 683.069 248.795 684 249.952 684H354.278C355.435 684 356.373 683.069 356.373 681.92V677.168C356.373 673.574 353.429 670.651 349.809 670.651ZM335.928 620.109H326.358C325.049 620.109 323.984 619.052 323.984 617.752V615.08H338.302V617.752C338.302 619.052 337.237 620.109 335.928 620.109ZM338.302 589.87V610.92H323.984V589.87C323.984 588.57 325.049 587.512 326.358 587.512H335.928C337.237 587.512 338.302 588.57 338.302 589.87ZM252.642 620.109H243.071C241.762 620.109 240.697 619.052 240.697 617.752V615.08H255.016V617.752C255.016 619.052 253.951 620.109 252.642 620.109ZM255.016 589.87V610.92H240.697V589.87C240.697 588.57 241.762 587.512 243.071 587.512H252.642C253.951 587.512 255.016 588.57 255.016 589.87ZM286.968 582.917H292.032V587.946H286.968V582.917ZM280.027 546.16H298.973V551.189H294.127H284.873H280.027V546.16ZM286.968 555.349H292.032V564.973H286.968V555.349ZM292.032 569.134V578.757H286.968V569.134H292.032ZM277.714 599.216C277.714 595.296 280.925 592.107 284.873 592.107H294.127C298.075 592.107 301.286 595.296 301.286 599.216V620.109H294.127H284.873H277.714V599.216ZM286.968 624.269H292.032V633.893H286.968V624.269ZM268.459 645.163C268.459 641.243 271.671 638.054 275.619 638.054H284.873H294.127H303.381C307.329 638.054 310.54 641.243 310.54 645.163V647.677H308.008H270.992H268.459V645.163ZM273.087 651.837H305.913V656.866H294.127H284.873H273.087V651.837ZM286.968 670.651V661.027H292.032V670.651H286.968Z" fill="white"/>
<path d="M283.716 603.593H286.03C287.187 603.593 288.124 602.662 288.124 601.513C288.124 600.364 287.187 599.433 286.03 599.433H283.716C282.559 599.433 281.621 600.364 281.621 601.513C281.621 602.662 282.559 603.593 283.716 603.593Z" fill="white"/>
<path d="M292.97 603.593H295.284C296.441 603.593 297.378 602.662 297.378 601.513C297.378 600.364 296.441 599.433 295.284 599.433H292.97C291.813 599.433 290.876 600.364 290.876 601.513C290.876 602.662 291.813 603.593 292.97 603.593Z" fill="white"/>
<path d="M288.124 610.703C288.124 609.554 287.187 608.623 286.03 608.623H283.716C282.559 608.623 281.621 609.554 281.621 610.703C281.621 611.852 282.559 612.783 283.716 612.783H286.03C287.187 612.783 288.124 611.852 288.124 610.703Z" fill="white"/>
<path d="M292.97 612.783H295.284C296.441 612.783 297.378 611.852 297.378 610.703C297.378 609.554 296.441 608.623 295.284 608.623H292.97C291.813 608.623 290.876 609.554 290.876 610.703C290.876 611.852 291.813 612.783 292.97 612.783Z" fill="white"/>
</g>
<defs>
<clipPath id="clip0">
<rect width="85.4466" height="73.3559" fill="white" transform="translate(900 389.723) rotate(-30)"/>
</clipPath>
<clipPath id="clip1">
<rect width="115" height="112" fill="white" transform="translate(1116.31 117) rotate(20)"/>
</clipPath>
<clipPath id="clip2">
<rect width="102" height="88" fill="white" transform="translate(56 350)"/>
</clipPath>
<clipPath id="clip3">
<rect width="143" height="142" fill="white" transform="translate(218 542)"/>
</clipPath>
</defs>
</svg>
