<svg width="324" height="154" viewBox="0 0 324 154" fill="none" xmlns="http://www.w3.org/2000/svg">
<line x1="0.986481" y1="84" x2="76.9865" y2="84" stroke="#FF5050" stroke-width="8"/>
<line x1="126" y1="84" x2="203" y2="84" stroke="#FF5050" stroke-width="8"/>
<rect x="27" y="44" width="17" height="78" rx="8.5" fill="#FF5050"/>
<rect x="10" y="60" width="17" height="46" rx="8.5" fill="#FF5050"/>
<rect x="179" y="60" width="17" height="46" rx="8.5" fill="#FF5050"/>
<rect x="162" y="44" width="17" height="78" rx="8.5" fill="#FF5050"/>
<rect x="82.5" y="57.5" width="38" height="51" fill="white" stroke="#FF5050" stroke-width="7"/>
<line x1="90" y1="76" x2="114" y2="76" stroke="#FF5050" stroke-width="2"/>
<line x1="90" y1="88" x2="114" y2="88" stroke="#FF5050" stroke-width="2"/>
<line x1="90" y1="93" x2="114" y2="93" stroke="#FF5050" stroke-width="2"/>
<line x1="90" y1="82" x2="114" y2="82" stroke="#FF5050" stroke-width="2"/>
<line x1="90" y1="71" x2="114" y2="71" stroke="#FF5050" stroke-width="2"/>
<path d="M236.625 61H231.537C229.009 61 227.057 60.328 225.681 58.984C224.305 57.64 223.617 55.704 223.617 53.176V37.96C223.617 35.432 224.305 33.496 225.681 32.152C227.057 30.808 229.009 30.136 231.537 30.136H236.625C239.121 30.136 241.057 30.824 242.433 32.2C243.809 33.544 244.497 35.464 244.497 37.96V39.4C244.497 40.104 244.161 40.456 243.489 40.456H239.409C238.737 40.456 238.401 40.104 238.401 39.4V38.248C238.401 37.224 238.193 36.504 237.777 36.088C237.361 35.64 236.641 35.416 235.617 35.416H232.497C231.505 35.416 230.785 35.64 230.337 36.088C229.921 36.504 229.713 37.224 229.713 38.248V52.888C229.713 53.912 229.921 54.648 230.337 55.096C230.785 55.512 231.505 55.72 232.497 55.72H235.617C236.641 55.72 237.361 55.512 237.777 55.096C238.193 54.648 238.401 53.912 238.401 52.888V49.864C238.401 49.512 238.225 49.336 237.873 49.336H234.993C234.321 49.336 233.985 49 233.985 48.328V45.064C233.985 44.392 234.321 44.056 234.993 44.056H243.393C244.129 44.056 244.497 44.424 244.497 45.16V53.176C244.497 55.672 243.809 57.608 242.433 58.984C241.057 60.328 239.121 61 236.625 61ZM253.757 69.112H250.685C250.045 69.112 249.725 68.76 249.725 68.056V64.84C249.725 64.136 250.045 63.784 250.685 63.784H251.693C253.709 63.784 255.069 63.496 255.773 62.92C256.509 62.376 257.069 61.304 257.453 59.704H254.909C254.301 59.704 253.901 59.368 253.709 58.696L248.093 37.528C247.901 36.856 248.141 36.52 248.813 36.52H253.085C253.725 36.52 254.125 36.856 254.285 37.528L258.413 55.24H258.605L262.685 37.528C262.813 36.856 263.213 36.52 263.885 36.52H267.917C268.717 36.52 269.037 36.872 268.877 37.576L263.021 61C262.317 63.656 261.229 65.672 259.757 67.048C258.285 68.424 256.285 69.112 253.757 69.112ZM277.455 61H273.375C272.703 61 272.367 60.664 272.367 59.992V37.528C272.367 36.856 272.703 36.52 273.375 36.52H277.455C278.127 36.52 278.463 36.856 278.463 37.528V39.112H278.655C279.039 38.344 279.679 37.72 280.575 37.24C281.503 36.76 282.559 36.52 283.743 36.52H285.087C287.871 36.52 289.871 37.544 291.087 39.592C292.175 37.544 294.047 36.52 296.703 36.52H298.095C300.559 36.52 302.415 37.192 303.663 38.536C304.943 39.88 305.583 41.816 305.583 44.344V59.992C305.583 60.664 305.247 61 304.575 61H300.495C299.823 61 299.487 60.664 299.487 59.992V44.632C299.487 43.608 299.279 42.888 298.863 42.472C298.447 42.024 297.727 41.8 296.703 41.8H295.503C293.295 41.8 292.191 43.032 292.191 45.496V59.992C292.191 60.664 291.839 61 291.135 61H287.103C286.431 61 286.095 60.664 286.095 59.992V44.632C286.095 43.608 285.871 42.888 285.423 42.472C285.007 42.024 284.287 41.8 283.263 41.8H281.775C279.567 41.8 278.463 43.016 278.463 45.448V59.992C278.463 60.664 278.127 61 277.455 61ZM238.459 122H222.667C221.995 122 221.659 121.664 221.659 120.992V92.144C221.659 91.472 221.995 91.136 222.667 91.136H226.747C227.419 91.136 227.755 91.472 227.755 92.144V116.144C227.755 116.496 227.947 116.672 228.331 116.672H238.459C239.099 116.672 239.419 117.024 239.419 117.728V120.992C239.419 121.664 239.099 122 238.459 122ZM254.454 122H250.182C247.654 122 245.702 121.328 244.326 119.984C242.95 118.64 242.262 116.704 242.262 114.176V105.344C242.262 102.816 242.95 100.88 244.326 99.536C245.702 98.192 247.654 97.52 250.182 97.52H254.454C256.95 97.52 258.886 98.208 260.262 99.584C261.67 100.928 262.374 102.848 262.374 105.344V114.176C262.374 116.672 261.67 118.608 260.262 119.984C258.886 121.328 256.95 122 254.454 122ZM251.094 116.768H253.542C254.566 116.768 255.286 116.56 255.702 116.144C256.15 115.728 256.374 115.008 256.374 113.984V105.536C256.374 104.512 256.15 103.792 255.702 103.376C255.286 102.96 254.566 102.752 253.542 102.752H251.094C250.07 102.752 249.35 102.96 248.934 103.376C248.518 103.792 248.31 104.512 248.31 105.536V113.984C248.31 115.008 248.518 115.728 248.934 116.144C249.35 116.56 250.07 116.768 251.094 116.768ZM275.803 120.896H274.219C271.755 120.896 269.883 120.224 268.603 118.88C267.355 117.536 266.731 115.6 266.731 113.072V105.344C266.731 102.816 267.419 100.88 268.795 99.536C270.171 98.192 272.123 97.52 274.651 97.52H285.739C286.443 97.52 286.795 97.856 286.795 98.528V122.192C286.795 124.688 286.091 126.608 284.683 127.952C283.307 129.296 281.371 129.968 278.875 129.968H269.659C269.275 129.968 269.003 129.888 268.843 129.728C268.715 129.6 268.651 129.36 268.651 129.008V125.696C268.651 125.024 268.987 124.688 269.659 124.688H277.867C278.891 124.688 279.611 124.464 280.027 124.016C280.475 123.6 280.699 122.896 280.699 121.904V118.256H280.507C280.155 119.12 279.531 119.776 278.635 120.224C277.739 120.672 276.795 120.896 275.803 120.896ZM280.699 111.968V103.328C280.699 102.976 280.507 102.8 280.123 102.8H275.611C274.587 102.8 273.867 103.024 273.451 103.472C273.035 103.888 272.827 104.608 272.827 105.632V112.784C272.827 113.808 273.035 114.528 273.451 114.944C273.867 115.36 274.587 115.568 275.611 115.568H277.387C279.595 115.568 280.699 114.368 280.699 111.968ZM301.318 122H292.198C291.558 122 291.238 121.664 291.238 120.992V117.92C291.238 117.568 291.302 117.328 291.43 117.2C291.558 117.04 291.814 116.96 292.198 116.96H300.214C301.782 116.96 302.566 116.48 302.566 115.52V115.28C302.566 114.512 301.91 113.776 300.598 113.072L295.846 110.432C294.214 109.6 293.014 108.704 292.246 107.744C291.478 106.784 291.094 105.552 291.094 104.048C291.094 101.808 291.686 100.16 292.87 99.104C294.054 98.048 295.91 97.52 298.438 97.52H306.454C307.094 97.52 307.414 97.856 307.414 98.528V101.648C307.414 102 307.35 102.256 307.222 102.416C307.094 102.544 306.838 102.608 306.454 102.608H299.782C298.214 102.608 297.43 103.008 297.43 103.808V104.048C297.43 104.752 298.118 105.472 299.494 106.208L304.342 109.088C306.006 109.984 307.174 110.912 307.846 111.872C308.518 112.8 308.854 114.032 308.854 115.568C308.854 119.856 306.342 122 301.318 122Z" fill="#0F69EF"/>
</svg>
